<svg width="390" height="390" viewBox="0 0 390 390" fill="none" xmlns="http://www.w3.org/2000/svg">
<rect width="390" height="390" rx="66" fill="#D23177"/>
<path d="M195 74.9167L96.75 118.583V184.083C96.75 244.671 138.67 301.328 195 315.083C251.33 301.328 293.25 244.671 293.25 184.083V118.583L195 74.9167ZM195 117.492C201.477 117.492 207.809 119.412 213.195 123.011C218.581 126.61 222.778 131.725 225.257 137.709C227.736 143.693 228.384 150.278 227.121 156.631C225.857 162.984 222.738 168.819 218.158 173.399C213.578 177.98 207.742 181.099 201.389 182.362C195.036 183.626 188.451 182.978 182.467 180.499C176.483 178.02 171.368 173.822 167.769 168.437C164.171 163.051 162.25 156.719 162.25 150.242C162.25 141.556 165.7 133.226 171.842 127.084C177.984 120.942 186.314 117.492 195 117.492ZM195 203.733C216.833 203.733 260.5 215.633 260.5 237.357C253.33 248.166 243.597 257.032 232.168 263.166C220.74 269.299 207.971 272.509 195 272.509C182.029 272.509 169.26 269.299 157.832 263.166C146.403 257.032 136.67 248.166 129.5 237.357C129.5 215.633 173.167 203.733 195 203.733Z" fill="white"/>
</svg>
