<svg width="390" height="390" viewBox="0 0 390 390" fill="none" xmlns="http://www.w3.org/2000/svg">
<rect width="390" height="390" rx="66" fill="#4BBE7D"/>
<path d="M241.875 89.5C233.079 89.5001 224.392 91.4463 216.437 95.1991C208.482 98.9518 201.456 104.418 195.862 111.206C190.268 117.994 186.245 125.936 184.082 134.462C181.919 142.987 181.669 151.886 183.35 160.52L98.2054 248.738C92.4194 254.667 89.2254 262.651 89.326 270.934C89.4267 279.217 92.8137 287.121 98.742 292.907C104.67 298.693 112.654 301.887 120.938 301.787C129.221 301.686 137.125 298.299 142.911 292.371L227.247 206.935C231.955 208.145 236.831 208.75 241.875 208.75C250.843 208.752 259.697 206.73 267.775 202.836C275.854 198.942 282.951 193.275 288.536 186.259C294.121 179.242 298.052 171.056 300.035 162.309C302.018 153.563 302.003 144.482 299.99 135.742C299.724 134.591 299.156 133.532 298.343 132.674C297.531 131.817 296.503 131.192 295.368 130.865C294.233 130.538 293.031 130.52 291.886 130.814C290.742 131.108 289.697 131.702 288.86 132.536L255.125 166.257L224.756 135.875L258.477 102.154C259.311 101.316 259.906 100.272 260.199 99.1272C260.493 97.9828 260.476 96.7807 260.149 95.6454C259.822 94.5101 259.197 93.4829 258.339 92.6703C257.482 91.8576 256.422 91.2892 255.271 91.0238C250.882 90.012 246.392 89.5008 241.888 89.5" fill="white"/>
</svg>
