<svg width="390" height="390" viewBox="0 0 390 390" fill="none" xmlns="http://www.w3.org/2000/svg">
<rect width="390" height="390" rx="66" fill="#FF2B87"/>
<path d="M276.547 199.003L274.465 218.398L291.414 220.218L293.507 200.835L276.547 199.003ZM207.876 289.344H183.124V306.406H207.876V289.344ZM116.535 218.398L114.453 199.003L97.493 200.824L99.5746 220.218L116.535 218.398ZM166.096 187.526L186.457 151.035L171.556 142.72L151.194 179.222L166.096 187.526ZM204.543 151.035L224.904 187.526L239.806 179.222L219.444 142.72L204.543 151.035ZM224.904 187.526C226.747 190.825 228.431 193.896 230.08 196.228C231.775 198.628 234.061 201.29 237.599 202.848L244.481 187.23C245.118 187.503 245.004 187.799 244.037 186.423C242.517 184.089 241.105 181.686 239.806 179.222L224.904 187.526ZM251.704 180.872C248.769 183.806 247.017 185.535 245.641 186.639C244.333 187.697 244.31 187.39 244.993 187.299L247.324 204.202C251.146 203.667 254.093 201.745 256.379 199.902C258.597 198.105 261.065 195.625 263.75 192.963L251.704 180.872ZM237.599 202.848C240.659 204.19 244.026 204.657 247.324 204.202L244.993 187.299C244.819 187.315 244.644 187.292 244.481 187.23L237.599 202.848ZM127.261 192.952C129.934 195.625 132.403 198.105 134.621 199.891C136.907 201.756 139.853 203.667 143.675 204.202L146.007 187.299C146.69 187.39 146.667 187.697 145.359 186.639C143.251 184.81 141.228 182.886 139.296 180.872L127.261 192.952ZM151.194 179.222C149.891 181.686 148.475 184.089 146.951 186.423C145.996 187.788 145.882 187.503 146.519 187.219L153.39 202.848C156.916 201.29 159.237 198.64 160.92 196.228C162.558 193.885 164.253 190.825 166.096 187.526L151.194 179.222ZM143.675 204.202C146.974 204.657 150.341 204.202 153.39 202.848L146.519 187.219C146.356 187.281 146.181 187.315 146.007 187.299L143.675 204.202ZM183.124 289.344C166.767 289.344 155.312 289.332 146.576 288.206C138.068 287.126 133.267 285.101 129.661 281.882L118.286 294.599C125.453 301.014 134.098 303.813 144.403 305.132C154.482 306.418 167.222 306.406 183.124 306.406V289.344ZM99.5746 220.218C101.258 235.893 102.6 251.237 104.875 263.682C106.024 269.961 107.48 275.876 109.482 281.006C111.473 286.102 114.226 290.959 118.286 294.599L129.661 281.882C128.342 280.699 126.841 278.538 125.373 274.795C123.932 271.094 122.696 266.366 121.665 260.611C119.526 248.985 118.275 234.675 116.535 218.398L99.5746 220.218ZM274.465 218.398C272.713 234.675 271.462 248.985 269.347 260.599C268.3 266.362 267.06 271.094 265.627 274.795C264.16 278.538 262.658 280.71 261.339 281.882L272.714 294.599C276.774 290.959 279.527 286.102 281.518 281.006C283.52 275.876 284.976 269.961 286.125 263.682C288.4 251.237 289.742 235.881 291.425 220.218L274.465 218.398ZM207.876 306.406C223.778 306.406 236.518 306.418 246.597 305.132C256.914 303.813 265.547 301.014 272.714 294.599L261.339 281.882C257.733 285.101 252.932 287.114 244.424 288.206C235.688 289.332 224.233 289.344 207.876 289.344V306.406ZM181.281 115.875C181.281 108.026 187.651 101.656 195.5 101.656V84.5938C187.204 84.5938 179.247 87.8894 173.381 93.7558C167.514 99.6222 164.219 107.579 164.219 115.875H181.281ZM195.5 101.656C203.349 101.656 209.719 108.026 209.719 115.875H226.781C226.781 107.579 223.486 99.6222 217.619 93.7558C211.753 87.8894 203.796 84.5938 195.5 84.5938V101.656ZM295.031 161.375C295.031 163.638 294.132 165.808 292.533 167.408C290.933 169.007 288.763 169.906 286.5 169.906V186.969C293.288 186.969 299.798 184.272 304.598 179.473C309.397 174.673 312.094 168.163 312.094 161.375H295.031ZM277.969 161.375C277.969 159.112 278.868 156.942 280.467 155.342C282.067 153.743 284.237 152.844 286.5 152.844V135.781C279.712 135.781 273.202 138.478 268.402 143.277C263.603 148.077 260.906 154.587 260.906 161.375H277.969ZM286.5 152.844C288.763 152.844 290.933 153.743 292.533 155.342C294.132 156.942 295.031 159.112 295.031 161.375H312.094C312.094 154.587 309.397 148.077 304.598 143.277C299.798 138.478 293.288 135.781 286.5 135.781V152.844ZM104.5 169.906C102.237 169.906 100.067 169.007 98.4675 167.408C96.8676 165.808 95.9688 163.638 95.9688 161.375H78.9062C78.9063 168.163 81.6027 174.673 86.4025 179.473C91.2022 184.272 97.7121 186.969 104.5 186.969V169.906ZM95.9688 161.375C95.9688 159.112 96.8676 156.942 98.4675 155.342C100.067 153.743 102.237 152.844 104.5 152.844V135.781C97.7121 135.781 91.2022 138.478 86.4025 143.277C81.6027 148.077 78.9063 154.587 78.9062 161.375H95.9688ZM104.5 152.844C106.763 152.844 108.933 153.743 110.533 155.342C112.132 156.942 113.031 159.112 113.031 161.375H130.094C130.094 154.587 127.397 148.077 122.598 143.277C117.798 138.478 111.288 135.781 104.5 135.781V152.844ZM286.5 169.906H286.398L286.204 186.969H286.5V169.906ZM293.507 200.835C294.064 195.716 294.542 191.246 294.804 187.515C295.122 184.117 295.107 180.695 294.758 177.3L277.844 179.575C278.014 180.826 278.026 182.874 277.787 186.309C277.559 189.653 277.116 193.782 276.547 199.003L293.507 200.835ZM286.398 169.906C285.189 169.892 283.997 169.621 282.9 169.111C281.804 168.601 280.829 167.864 280.039 166.949L267.128 178.096C271.747 183.443 278.572 186.878 286.204 186.969L286.398 169.906ZM280.039 166.949C278.694 165.405 277.958 163.423 277.969 161.375H260.906C260.906 167.756 263.261 173.615 267.128 178.096L280.039 166.949ZM263.75 192.963C271.451 185.285 275.421 181.418 278.06 179.78L269.108 165.265C264.33 168.223 258.597 174.001 251.704 180.872L263.75 192.963ZM113.031 161.375C113.042 163.423 112.306 165.405 110.961 166.949L123.872 178.096C127.739 173.615 130.094 167.756 130.094 161.375H113.031ZM139.296 180.872C132.403 174.001 126.67 168.211 121.892 165.265L112.94 179.78C115.579 181.418 119.538 185.285 127.25 192.963L139.296 180.872ZM110.961 166.949C110.171 167.864 109.196 168.601 108.1 169.111C107.003 169.621 105.811 169.892 104.602 169.906L104.796 186.969C108.423 186.926 111.999 186.113 115.287 184.583C118.576 183.054 121.502 180.842 123.872 178.096L110.961 166.949ZM104.602 169.906H104.5V186.969H104.796L104.602 169.906ZM114.453 199.003C113.968 194.779 113.555 190.547 113.213 186.309C112.972 184.072 112.953 181.816 113.156 179.575L96.2417 177.3C95.8935 180.695 95.8782 184.117 96.1962 187.515C96.4579 191.246 96.9356 195.705 97.493 200.824L114.453 199.003ZM209.719 115.875C209.719 121.392 206.579 126.192 201.95 128.558L209.696 143.755C214.838 141.136 219.156 137.146 222.172 132.225C225.187 127.305 226.782 121.646 226.781 115.875H209.719ZM201.95 128.558C200.016 129.536 197.843 130.094 195.5 130.094V147.156C200.439 147.161 205.309 145.991 209.707 143.744L201.95 128.558ZM219.444 142.72C217.101 138.511 214.997 134.723 213.063 131.629L198.594 140.672C200.255 143.334 202.12 146.713 204.543 151.035L219.444 142.72ZM195.5 130.094C193.157 130.094 190.973 129.525 189.05 128.558L181.304 143.755C185.57 145.928 190.404 147.156 195.5 147.156V130.094ZM189.05 128.558C186.711 127.367 184.746 125.552 183.375 123.313C182.004 121.075 181.279 118.5 181.281 115.875H164.219C164.22 121.644 165.816 127.3 168.831 132.219C171.847 137.137 176.163 141.126 181.304 143.744L189.05 128.558ZM186.457 151.035C188.868 146.69 190.745 143.334 192.406 140.684L177.937 131.629C176.003 134.723 173.899 138.511 171.556 142.72L186.457 151.035Z" fill="white"/>
<path d="M115.875 258.062H275.125" stroke="white" stroke-width="17" stroke-linecap="round"/>
</svg>
