<svg width="390" height="390" viewBox="0 0 390 390" fill="none" xmlns="http://www.w3.org/2000/svg">
<rect width="390" height="390" rx="66" fill="#5FD1E8"/>
<path d="M195 151.25C204.283 151.25 213.185 147.563 219.749 140.999C226.313 134.435 230 125.533 230 116.25C230 106.967 226.313 98.065 219.749 91.5013C213.185 84.9375 204.283 81.25 195 81.25C185.717 81.25 176.815 84.9375 170.251 91.5013C163.687 98.065 160 106.967 160 116.25C160 125.533 163.687 134.435 170.251 140.999C176.815 147.563 185.717 151.25 195 151.25ZM142.5 120.625C142.5 124.647 141.708 128.629 140.169 132.345C138.63 136.06 136.374 139.436 133.53 142.28C130.686 145.124 127.31 147.38 123.595 148.919C119.879 150.458 115.897 151.25 111.875 151.25C107.853 151.25 103.871 150.458 100.155 148.919C96.4397 147.38 93.0637 145.124 90.2199 142.28C87.3761 139.436 85.1202 136.06 83.5812 132.345C82.0421 128.629 81.25 124.647 81.25 120.625C81.25 112.503 84.4766 104.713 90.2199 98.9699C95.9632 93.2266 103.753 90 111.875 90C119.997 90 127.787 93.2266 133.53 98.9699C139.273 104.713 142.5 112.503 142.5 120.625ZM308.75 120.625C308.75 124.647 307.958 128.629 306.419 132.345C304.88 136.06 302.624 139.436 299.78 142.28C296.936 145.124 293.56 147.38 289.845 148.919C286.129 150.458 282.147 151.25 278.125 151.25C274.103 151.25 270.121 150.458 266.405 148.919C262.69 147.38 259.314 145.124 256.47 142.28C253.626 139.436 251.37 136.06 249.831 132.345C248.292 128.629 247.5 124.647 247.5 120.625C247.5 112.503 250.727 104.713 256.47 98.9699C262.213 93.2266 270.003 90 278.125 90C286.247 90 294.037 93.2266 299.78 98.9699C305.523 104.713 308.75 112.503 308.75 120.625ZM137.049 168.75C132.068 174.951 129.36 182.671 129.375 190.625V256.25C129.375 267.056 131.982 277.25 136.611 286.236C129.943 289.743 122.481 291.468 114.95 291.244C107.419 291.02 100.074 288.855 93.6252 284.959C87.1765 281.063 81.8434 275.567 78.1423 269.004C74.4413 262.442 72.4977 255.034 72.5 247.5V190.625C72.5 184.823 74.8047 179.259 78.907 175.157C83.0094 171.055 88.5734 168.75 94.375 168.75H137.049ZM253.389 286.236C258.149 276.958 260.63 266.678 260.625 256.25V190.625C260.625 182.348 257.755 174.744 252.951 168.75H295.625C301.427 168.75 306.991 171.055 311.093 175.157C315.195 179.259 317.5 184.823 317.5 190.625V247.5C317.502 255.034 315.559 262.442 311.858 269.004C308.157 275.567 302.823 281.063 296.375 284.959C289.926 288.855 282.581 291.02 275.05 291.244C267.519 291.468 260.057 289.743 253.389 286.236ZM164.375 168.75C158.573 168.75 153.009 171.055 148.907 175.157C144.805 179.259 142.5 184.823 142.5 190.625V256.25C142.5 270.174 148.031 283.527 157.877 293.373C167.723 303.219 181.076 308.75 195 308.75C208.924 308.75 222.277 303.219 232.123 293.373C241.969 283.527 247.5 270.174 247.5 256.25V190.625C247.5 184.823 245.195 179.259 241.093 175.157C236.991 171.055 231.427 168.75 225.625 168.75H164.375Z" fill="white"/>
</svg>
